<?xml version="1.0" encoding="UTF-8" standalone="no"?>
<!-- Created with Inkscape (http://www.inkscape.org/) -->

<svg
   xmlns:dc="http://purl.org/dc/elements/1.1/"
   xmlns:cc="http://creativecommons.org/ns#"
   xmlns:rdf="http://www.w3.org/1999/02/22-rdf-syntax-ns#"
   xmlns:svg="http://www.w3.org/2000/svg"
   xmlns="http://www.w3.org/2000/svg"
   xmlns:sodipodi="http://sodipodi.sourceforge.net/DTD/sodipodi-0.dtd"
   xmlns:inkscape="http://www.inkscape.org/namespaces/inkscape"
   id="svg2"
   height="18.01"
   width="54.964"
   version="1.1"
   inkscape:version="0.48.4 r9939"
   sodipodi:docname="controls2.svg">
  <defs
     id="defs3986" />
  <sodipodi:namedview
     pagecolor="#ffffff"
     bordercolor="#666666"
     borderopacity="1"
     objecttolerance="10"
     gridtolerance="10"
     guidetolerance="10"
     inkscape:pageopacity="0"
     inkscape:pageshadow="2"
     inkscape:window-width="1440"
     inkscape:window-height="853"
     id="namedview3984"
     showgrid="false"
     inkscape:zoom="7.11375"
     inkscape:cx="23.5833"
     inkscape:cy="18.2738"
     inkscape:window-x="-4"
     inkscape:window-y="-4"
     inkscape:window-maximized="1"
     inkscape:current-layer="g3997" />
  <metadata
     id="metadata7">
    <rdf:RDF>
      <cc:Work
         rdf:about="">
        <dc:format>image/svg+xml</dc:format>
        <dc:type
           rdf:resource="http://purl.org/dc/dcmitype/StillImage" />
        <dc:title></dc:title>
      </cc:Work>
    </rdf:RDF>
  </metadata>
  <g
     id="g3997"
     transform="translate(0,2)">
    <path
       id="path3777-4-2"
       d="m 0,-1.99 0,4.00222 15,0 0,-4.00222 -15,0 z m 0,7.00389 0,4.00221 15,0 0,-4.00221 -15,0 z m 0,7.00391 0,3.9922 15,0 0,-3.9922 -15,0 z"
       inkscape:connector-curvature="0"
       style="fill:#000000" />
    <path
       id="path3835"
       d="m 0.78248,3.125 3.8891,3.89 -3.8891,3.89 2.8284,2.83 3.8891,-3.89 3.88912,3.89 2.8284,-2.83 -3.8891,-3.89 3.8891,-3.89 -2.8284,-2.83 -3.88912,3.89 -3.8891,-3.89 -2.8284,2.83 z"
       inkscape:connector-curvature="0"
       style="fill:#000000" />
    <path
       id="path2987-8"
       d="m 44,16.01 0,-18 11,9.005 z"
       inkscape:connector-curvature="0"
       style="fill:#000000" />
    <path
       id="path2987-1-8"
       d="m 36,-1.99 0,18 -11,-8.995 z"
       inkscape:connector-curvature="0"
       style="fill:#000000" />
  </g>
</svg>
